<svg width="32" height="32" viewBox="0 0 32 32" fill="none" xmlns="http://www.w3.org/2000/svg">
  <!-- Book -->
  <rect x="4" y="8" width="18" height="20" rx="2" fill="#f8fafc" stroke="#334155" stroke-width="1.5"/>
  <rect x="6" y="10" width="14" height="16" rx="1" fill="#ffffff"/>
  <line x1="8" y1="14" x2="18" y2="14" stroke="#64748b" stroke-width="1"/>
  <line x1="8" y1="17" x2="16" y2="17" stroke="#64748b" stroke-width="1"/>
  <line x1="8" y1="20" x2="17" y2="20" stroke="#64748b" stroke-width="1"/>
  
  <!-- Quill -->
  <path d="M22 6C23.5 4.5 25.5 4.5 27 6C28.5 7.5 28.5 9.5 27 11L20 18L17 15L22 6Z" fill="#8b5cf6" stroke="#7c3aed" stroke-width="1"/>
  <path d="M17 15L20 18L18.5 19.5C18.1 19.9 17.5 20 17 19.8L15.2 19.2C14.9 19.1 14.7 18.8 14.8 18.5L15.5 16.5C15.7 16 15.9 15.5 16.5 15.5L17 15Z" fill="#64748b"/>
  
  <!-- Ink drop -->
  <circle cx="19" cy="17" r="1" fill="#3b82f6"/>
</svg> 